<svg width="16" height="16" viewBox="0 0 16 16" fill="none" xmlns="http://www.w3.org/2000/svg">
<path fill-rule="evenodd" clip-rule="evenodd" d="M5.33369 10.2281V14.6667C5.33369 15.1463 5.82503 15.469 6.26522 15.2785L9.50055 13.8778C10.2287 13.5611 10.667 12.8453 10.667 12.0447V10.2281L15.5826 3.88573C16.5948 2.56584 15.6529 0.666672 13.9924 0.666672H2.00769C0.346978 0.666672 -0.59504 2.56631 0.416349 3.88282L5.33369 10.2281ZM6.66702 10C6.66702 9.85216 6.61788 9.7085 6.52731 9.59164L1.47198 3.0683C1.1372 2.63253 1.45087 2.00001 2.00769 2.00001H13.9924C14.5492 2.00001 14.8632 2.63289 14.5267 3.07164L9.47342 9.59161C9.38285 9.70848 9.33369 9.85214 9.33369 10V12.0447C9.33369 12.3299 9.19468 12.5568 8.96975 12.6547L6.66702 13.6516V10Z" fill="#2D2D2E"/>
</svg>
