<svg width="123" height="29" viewBox="0 0 123 29" fill="none" xmlns="http://www.w3.org/2000/svg">
<path fill-rule="evenodd" clip-rule="evenodd" d="M18.0227 11.469C19.8752 12.6479 19.8752 15.3521 18.0227 16.531L4.61063 25.066C2.61346 26.3369 0 24.9023 0 22.535V5.46502C0 3.09775 2.61345 1.66311 4.61063 2.93403L18.0227 11.469Z" fill="#56C8FF"/>
<path fill-rule="evenodd" clip-rule="evenodd" d="M17.9296 16.456C19.8096 17.631 19.8096 20.369 17.9296 21.544L10.59 26.1313C8.59185 27.3801 6 25.9436 6 23.5873L6 14.4127C6 12.0564 8.59185 10.6199 10.59 11.8687L17.9296 16.456Z" fill="#47B7ED"/>
<path fill-rule="evenodd" clip-rule="evenodd" d="M66.665 7.75H68.7891V19H66.665V7.75ZM37.7124 18.7546C36.9897 19.0159 36.189 19.1465 35.3101 19.1465C34.3872 19.1465 33.5779 18.9451 32.8821 18.5422C32.1863 18.1394 31.6492 17.5547 31.2708 16.7881C30.8923 16.0215 30.6982 15.1206 30.6885 14.0854V13.3604C30.6885 12.2959 30.8679 11.3743 31.2268 10.5955C31.5857 9.81665 32.1033 9.22095 32.7795 8.80835C33.4558 8.39575 34.248 8.18945 35.1562 8.18945C36.4209 8.18945 37.4097 8.49097 38.1226 9.09399C38.8354 9.69702 39.2578 10.5747 39.3896 11.7271H37.251C37.1533 11.1167 36.9373 10.6699 36.6028 10.3867C36.2683 10.1035 35.8081 9.96191 35.2222 9.96191C34.4751 9.96191 33.9062 10.2427 33.5156 10.8042C33.125 11.3657 32.9272 12.2007 32.9224 13.3091V13.9902C32.9224 15.1084 33.1348 15.9531 33.5596 16.5244C33.9844 17.0957 34.6069 17.3813 35.4272 17.3813C36.2524 17.3813 36.8408 17.2056 37.1924 16.854V15.0156H35.1929V13.397H39.3896V17.6523C38.9941 18.126 38.4351 18.4934 37.7124 18.7546ZM47.1899 18.0442C46.5112 18.7791 45.6006 19.1465 44.458 19.1465C43.3154 19.1465 42.4036 18.7803 41.7224 18.0479C41.0413 17.3154 40.7007 16.3193 40.7007 15.0596V14.9644C40.7007 14.1782 40.8521 13.4775 41.1548 12.8623C41.4575 12.2471 41.8933 11.771 42.4622 11.4341C43.031 11.0972 43.6914 10.9287 44.4434 10.9287C45.5127 10.9287 46.3855 11.2559 47.0618 11.9102C47.738 12.5645 48.1152 13.4531 48.1934 14.5762L48.208 15.1182C48.208 16.334 47.8687 17.3093 47.1899 18.0442ZM44.458 17.4399C43.9307 17.4399 43.5254 17.241 43.2422 16.843C42.959 16.4451 42.8174 15.8701 42.8174 15.1182C42.8174 14.2734 42.959 13.6497 43.2422 13.2468C43.5254 12.844 43.9258 12.6426 44.4434 12.6426C44.9658 12.6426 45.3711 12.8452 45.6592 13.2505C45.9473 13.6558 46.0913 14.2271 46.0913 14.9644C46.0913 15.8286 45.9473 16.4573 45.6592 16.8503C45.3711 17.2434 44.9707 17.4399 44.458 17.4399ZM55.6714 18.0442C54.9927 18.7791 54.082 19.1465 52.9395 19.1465C51.7969 19.1465 50.885 18.7803 50.2039 18.0479C49.5227 17.3154 49.1821 16.3193 49.1821 15.0596V14.9644C49.1821 14.1782 49.3335 13.4775 49.6362 12.8623C49.939 12.2471 50.3748 11.771 50.9436 11.4341C51.5125 11.0972 52.1729 10.9287 52.9248 10.9287C53.9941 10.9287 54.8669 11.2559 55.5432 11.9102C56.2195 12.5645 56.5967 13.4531 56.6748 14.5762L56.6895 15.1182C56.6895 16.334 56.3501 17.3093 55.6714 18.0442ZM52.9395 17.4399C52.4121 17.4399 52.0068 17.241 51.7236 16.843C51.4404 16.4451 51.2988 15.8701 51.2988 15.1182C51.2988 14.2734 51.4404 13.6497 51.7236 13.2468C52.0068 12.844 52.4072 12.6426 52.9248 12.6426C53.4473 12.6426 53.8525 12.8452 54.1406 13.2505C54.4287 13.6558 54.5728 14.2271 54.5728 14.9644C54.5728 15.8286 54.4287 16.4573 54.1406 16.8503C53.8525 17.2434 53.4521 17.4399 52.9395 17.4399ZM63.1274 21.7173C62.5562 21.9858 61.8872 22.1201 61.1206 22.1201C60.5396 22.1201 59.9731 22.0042 59.4214 21.7722C58.8696 21.5403 58.4521 21.2412 58.1689 20.875L59.1064 19.5859C59.6338 20.1768 60.2734 20.4722 61.0254 20.4722C61.5869 20.4722 62.0239 20.322 62.3364 20.0217C62.6489 19.7214 62.8052 19.2954 62.8052 18.7437V18.3188C62.3169 18.8706 61.6748 19.1465 60.8789 19.1465C59.9268 19.1465 59.1565 18.7742 58.5681 18.0295C57.9797 17.2849 57.6855 16.2974 57.6855 15.0669V14.979C57.6855 13.7632 57.9749 12.7842 58.5535 12.042C59.1321 11.2998 59.9121 10.9287 60.8936 10.9287C61.7627 10.9287 62.439 11.2266 62.9224 11.8223L63.0103 11.0752H64.9292V18.7363C64.9292 19.4297 64.7717 20.0327 64.4568 20.5454C64.1418 21.0581 63.6987 21.4487 63.1274 21.7173ZM61.4209 17.4326C60.918 17.4326 60.5225 17.2288 60.2344 16.821C59.9463 16.4133 59.8022 15.8506 59.8022 15.1328C59.8022 14.3076 59.9475 13.6875 60.238 13.2725C60.5286 12.8574 60.9277 12.6499 61.4355 12.6499C62.0654 12.6499 62.522 12.8916 62.8052 13.375V16.7075C62.5269 17.1909 62.0654 17.4326 61.4209 17.4326ZM74.1797 19.1465C74.8389 19.1465 75.4395 19.0208 75.9814 18.7693C76.5234 18.5178 76.9531 18.1675 77.2705 17.7183L76.2305 16.5537C75.7715 17.1445 75.1343 17.4399 74.3188 17.4399C73.7915 17.4399 73.3557 17.2837 73.0115 16.9712C72.6672 16.6587 72.4609 16.2437 72.3926 15.7261H77.439V14.8618C77.439 13.6069 77.1277 12.6377 76.5051 11.9541C75.8826 11.2705 75.0293 10.9287 73.9453 10.9287C73.2227 10.9287 72.5793 11.0984 72.0154 11.4377C71.4514 11.7771 71.0156 12.2605 70.708 12.8879C70.4004 13.5154 70.2466 14.2271 70.2466 15.0229V15.228C70.2466 16.4146 70.6116 17.3643 71.3416 18.0771C72.0715 18.79 73.0176 19.1465 74.1797 19.1465ZM72.4146 14.2832H75.3589V14.1147C75.3491 13.646 75.2222 13.2834 74.978 13.0271C74.7339 12.7708 74.3872 12.6426 73.938 12.6426C73.5181 12.6426 73.1775 12.7842 72.9163 13.0674C72.655 13.3506 72.4878 13.7559 72.4146 14.2832ZM89.3774 19V17.2349H84.7119V8.33594H82.5146V19H89.3774ZM92.5305 9.81543C92.3132 10.0205 92.0264 10.123 91.6699 10.123C91.3135 10.123 91.0266 10.0205 90.8093 9.81543C90.592 9.61035 90.4834 9.34668 90.4834 9.02441C90.4834 8.70703 90.5896 8.4458 90.802 8.24072C91.0144 8.03564 91.3037 7.93311 91.6699 7.93311C92.0312 7.93311 92.3193 8.03564 92.5342 8.24072C92.749 8.4458 92.8564 8.70703 92.8564 9.02441C92.8564 9.34668 92.7478 9.61035 92.5305 9.81543ZM92.7319 19V11.0752H90.6079V19H92.7319ZM101.125 11.0752L98.4521 19H96.4307L93.7573 11.0752H95.9692L97.4414 16.4146L98.9136 11.0752H101.125ZM104.172 19V13.8145C104.421 13.2725 104.946 13.0015 105.747 13.0015C105.967 13.0015 106.221 13.021 106.509 13.0601L106.538 11.0239C106.333 10.9604 106.113 10.9287 105.879 10.9287C105.127 10.9287 104.539 11.2925 104.114 12.02L104.055 11.0752H102.056V19H104.172ZM113.687 18.0442C113.008 18.7791 112.097 19.1465 110.955 19.1465C109.812 19.1465 108.9 18.7803 108.219 18.0479C107.538 17.3154 107.197 16.3193 107.197 15.0596V14.9644C107.197 14.1782 107.349 13.4775 107.651 12.8623C107.954 12.2471 108.39 11.771 108.959 11.4341C109.528 11.0972 110.188 10.9287 110.94 10.9287C112.009 10.9287 112.882 11.2559 113.558 11.9102C114.235 12.5645 114.612 13.4531 114.69 14.5762L114.705 15.1182C114.705 16.334 114.365 17.3093 113.687 18.0442ZM110.955 17.4399C110.427 17.4399 110.022 17.241 109.739 16.843C109.456 16.4451 109.314 15.8701 109.314 15.1182C109.314 14.2734 109.456 13.6497 109.739 13.2468C110.022 12.844 110.422 12.6426 110.94 12.6426C111.462 12.6426 111.868 12.8452 112.156 13.2505C112.444 13.6558 112.588 14.2271 112.588 14.9644C112.588 15.8286 112.444 16.4573 112.156 16.8503C111.868 17.2434 111.467 17.4399 110.955 17.4399ZM121.428 18.4763C120.808 18.9231 120.007 19.1465 119.026 19.1465C118.362 19.1465 117.772 19.0281 117.257 18.7913C116.742 18.5544 116.338 18.2297 116.045 17.8171C115.752 17.4045 115.605 16.959 115.605 16.4805H117.612C117.632 16.8564 117.771 17.1445 118.03 17.3447C118.289 17.5449 118.635 17.645 119.07 17.645C119.475 17.645 119.781 17.5681 119.989 17.4143C120.197 17.2605 120.3 17.0591 120.3 16.8101C120.3 16.5513 120.172 16.3474 119.916 16.1985C119.659 16.0496 119.248 15.9165 118.682 15.7993C116.797 15.4038 115.854 14.603 115.854 13.397C115.854 12.6938 116.146 12.1067 116.73 11.6355C117.313 11.1643 118.076 10.9287 119.019 10.9287C120.024 10.9287 120.829 11.1655 121.432 11.6392C122.035 12.1128 122.336 12.728 122.336 13.4849H120.22C120.22 13.1821 120.122 12.9319 119.927 12.7341C119.731 12.5364 119.426 12.4375 119.011 12.4375C118.655 12.4375 118.379 12.5181 118.184 12.6792C117.988 12.8403 117.891 13.0454 117.891 13.2944C117.891 13.5288 118.002 13.718 118.224 13.8621C118.446 14.0061 118.821 14.1306 119.348 14.2356C119.875 14.3406 120.32 14.459 120.681 14.5908C121.799 15.001 122.358 15.7114 122.358 16.7222C122.358 17.4448 122.048 18.0295 121.428 18.4763Z" fill="#86878B"/>
</svg>
